<?xml version="1.0" encoding="UTF-8" standalone="no"?>
<!-- Created with Inkscape (http://www.inkscape.org/) -->

<svg
   width="53.57795"
   height="45.434666"
   viewBox="0 0 53.57795 45.434665"
   version="1.1"
   id="svg5"
   sodipodi:docname="path373.svg"
   xmlns:inkscape="http://www.inkscape.org/namespaces/inkscape"
   xmlns:sodipodi="http://sodipodi.sourceforge.net/DTD/sodipodi-0.dtd"
   xmlns="http://www.w3.org/2000/svg"
   xmlns:svg="http://www.w3.org/2000/svg">
  <sodipodi:namedview
     id="namedview18"
     pagecolor="#505050"
     bordercolor="#ffffff"
     borderopacity="1"
     inkscape:showpageshadow="0"
     inkscape:pageopacity="0"
     inkscape:pagecheckerboard="1"
     inkscape:deskcolor="#505050"
     showgrid="false" />
  <defs
     id="defs2" />
  <g
     id="layer1"
     transform="translate(-193.92697,-51.768333)">
    <g
       aria-label="Maniiifision"
       id="text116">
      <path
         d="m 193.92697,81.148841 q 0.112,-3.696 0.952,-7.28 0.896,-3.64 1.4,-5.6 0.504,-1.96 0.616,-2.352 0.112,-0.448 0.112,-0.896 -0.448,-0.336 -0.392,-0.952 0.112,-0.672 0.896,-0.952 0.112,-0.056 0.168,-0.056 0.056,0 0.392,0 0.336,-0.056 0.448,0.056 0.112,0.056 0.112,0.056 0,-0.056 0.056,-0.056 1.792,-0.28 2.8,2.184 0.448,1.008 0.672,2.072 0.28,1.064 0.728,1.904 0.448,0.84 1.008,1.848 0.616,1.008 1.512,1.792 1.232,-0.112 2.464,-2.408 0.336,-0.56 0.672,-1.064 0.336,-0.56 0.672,-1.232 0.392,-0.672 0.672,-1.12 0.336,-0.504 1.064,-1.736 0.84,-1.288 1.848,-2.52 2.632,-3.192 4.256,-2.632 1.344,0.392 1.232,2.52 0,0.56 -0.112,1.064 -0.056,1.624 -0.224,2.632 -0.112,0.952 -0.224,1.848 -0.112,0.84 -0.336,2.016 -0.672,3.136 -1.736,6.44 -1.064,3.248 -1.344,4.144 -0.28,0.896 -0.392,1.344 -0.056,0.448 -0.168,0.896 0.28,0.504 0.056,1.176 l -0.336,0.504 q -0.392,0.56 -0.896,0.56 -0.504,0 -0.952,-0.448 -0.672,-1.344 1.064,-6.496 0.952,-2.8 1.344,-4.368 0.448,-1.624 0.84,-3.08 0.056,-0.112 0.056,0.112 1.12,-4.424 1.064,-8.232 -2.352,2.352 -5.656,7.84 -1.736,2.856 -2.408,3.528 -0.616,0.672 -1.4,0.784 -1.904,0.336 -3.024,-0.504 -1.12,-0.896 -1.848,-2.352 -0.728,-1.456 -1.288,-3.136 -0.504,-1.68 -1.232,-3.024 -0.112,0.784 -0.336,1.512 -0.224,0.728 -0.672,2.576 -0.392,1.792 -1.12,4.872 -0.728,3.024 -0.84,6.16 -0.112,1.12 -1.064,1.232 -0.392,0 -0.784,-0.28 -0.336,-0.28 -0.392,-0.896 z m 2.8,-14.84 0.056,-0.224 q 0,0.112 -0.056,0.224 z"
         style="font-size:56px;font-family:Karumbi;-inkscape-font-specification:'Karumbi, Normal';fill:#ed1d33;fill-opacity:1"
         id="path373" />
      <path
         d="m 221.15164,69.395 q 0.504,-0.952 1.344,-0.672 0.896,0.28 0.784,1.288 -0.84,3.024 -1.456,6.048 -0.56,2.968 -1.4,5.992 -0.448,1.064 -1.4,0.784 -0.952,-0.28 -0.672,-1.456 0.28,-1.12 0.56,-2.24 0.336,-1.176 0.616,-2.296 v -0.056 q 0.448,-1.848 0.728,-3.696 0.336,-1.904 0.896,-3.696 z m 2.912,-8.008 q 0.952,0.336 0.952,1.176 0,0.84 -1.008,1.064 h -0.224 q -0.616,-0.056 -0.896,-0.392 -0.224,-0.336 -0.224,-0.784 0.056,-0.952 1.176,-1.064 z"
         style="font-size:56px;font-family:Karumbi;-inkscape-font-specification:'Karumbi, Normal';fill:#2873ac;fill-opacity:1"
         id="path379" />
      <path
         d="m 226.76762,65.395 q 0.504,-0.952 1.344,-0.672 0.896,0.28 0.784,1.288 -0.84,3.024 -1.456,6.048 -0.56,2.968 -1.4,5.992 -0.448,1.064 -1.4,0.784 -0.952,-0.28 -0.672,-1.456 0.28,-1.12 0.56,-2.24 0.336,-1.176 0.616,-2.296 v -0.056 q 0.448,-1.848 0.728,-3.696 0.336,-1.904 0.896,-3.696 z m 2.912,-8.008 q 0.952,0.336 0.952,1.176 0,0.84 -1.008,1.064 h -0.224 q -0.616,-0.056 -0.896,-0.392 -0.224,-0.336 -0.224,-0.784 0.056,-0.952 1.176,-1.064 z"
         style="font-size:56px;font-family:Karumbi;-inkscape-font-specification:'Karumbi, Normal';fill:#ed1d33;fill-opacity:1"
         id="path381" />
      <path
         d="m 232.3836,61.395 q 0.504,-0.952 1.344,-0.672 0.896,0.28 0.784,1.288 -0.84,3.024 -1.456,6.048 -0.56,2.968 -1.4,5.992 -0.448,1.064 -1.4,0.784 -0.952,-0.28 -0.672,-1.456 0.28,-1.12 0.56,-2.24 0.336,-1.176 0.616,-2.296 v -0.056 q 0.448,-1.848 0.728,-3.696 0.336,-1.904 0.896,-3.696 z m 2.912,-8.008 q 0.952,0.336 0.952,1.176 0,0.84 -1.008,1.064 h -0.224 q -0.616,-0.056 -0.896,-0.392 -0.224,-0.336 -0.224,-0.784 0.056,-0.952 1.176,-1.064 z"
         style="font-size:56px;font-family:Karumbi;-inkscape-font-specification:'Karumbi, Normal';fill:#2873ac;fill-opacity:1"
         id="path383" />
      <path
         d="m 232.93559,71.667 q -1.008,-0.168 -1.12,-0.952 -0.112,-0.84 0.84,-1.232 0.728,-0.112 1.848,-1.232 l 1.288,-1.288 q 1.848,-1.848 3.136,-3.696 2.52,-6.608 5.32,-11.2 0.616,-0.448 1.232,-0.224 0.672,0.168 0.728,0.952 h 0.168 l -0.168,0.336 q -0.784,5.376 -5.376,11.536 -0.504,1.288 -0.952,2.576 -0.392,1.232 -0.84,2.52 1.736,-0.448 3.528,-0.672 1.792,-0.224 3.64,-0.56 0.56,-0.056 0.896,0.224 0.336,0.28 0.392,0.672 0.056,0.392 -0.224,0.784 -0.224,0.392 -1.568,0.672 -1.288,0.28 -3.416,0.504 -2.128,0.224 -4.088,0.952 -0.896,2.968 -1.736,5.88 -0.84,2.912 -1.512,4.984 -0.616,2.128 -1.064,3.752 -0.392,1.68 -0.952,3.416 -1.288,4.144 -2.688,6.272 -0.392,0.56 -0.896,0.56 -0.56,0 -1.008,-0.448 0,-0.112 -0.056,-0.112 -0.336,-1.008 0.28,-1.512 1.568,-2.688 2.352,-5.824 0.784,-3.08 1.624,-5.768 0.84,-2.632 1.512,-5.096 0.672,-2.408 1.4,-4.928 -0.784,0.112 -1.176,-0.616 -0.336,-0.784 0.504,-1.4 0.784,-0.448 1.568,-0.784 0.112,-0.448 0.28,-0.84 0.168,-0.392 0.28,-0.84 -0.84,0.784 -1.848,1.68 -1.008,0.84 -2.128,0.952 z"
         style="font-size:56px;font-family:Karumbi;-inkscape-font-specification:'Karumbi, Normal';fill:#ed1d33;fill-opacity:1"
         id="path385" />
    </g>
  </g>
</svg>
